# xmcd
#
# Track frame offsets:
#	150
#	15765
#	32101
#	45720
#	59952
#	73309
#	88020
#	103083
#	117928
#	134137
#	149676
#	162256
#
# Disc length: 2338 seconds
#
# Revision: 1
# Processed by: cddbd v1.5.2PL0 Copyright (c) Steve Scherf et al.
# Submitted via: audiograbber 1.82.02
#
DISCID=b809200c
DTITLE=Tom Curtain - Heatwave
DYEAR=1999
DGENRE=Country
TTITLE0=Chew Like Hell
TTITLE1=Skye High
TTITLE2=Wild Horses
TTITLE3=Born Out Here
TTITLE4=Heatwave
TTITLE5=Wearing Out Leather
TTITLE6=Worthwhile
TTITLE7=Go Gonna Go
TTITLE8=Days Roll By
TTITLE9=Ringer In The Sky
TTITLE10=A Million Memories
TTITLE11=Hillbilly Music
EXTD=
EXTT0=
EXTT1=
EXTT2=
EXTT3=
EXTT4=
EXTT5=
EXTT6=
EXTT7=
EXTT8=
EXTT9=
EXTT10=
EXTT11=
PLAYORDER=
